<svg xmlns="http://www.w3.org/2000/svg" viewBox="0 0 32 32">
    <path d="M16.05 0A16.22 16.22 0 000 16.43 16.38 16.38 0 0011 32c.86.11 1.07-.33 1.07-.76v-2.87c-4.49 1-5.45-2.19-5.45-2.19a4.63 4.63 0 00-1.82-2.41c-1.5-1 .1-1 .1-1a3.37 3.37 0 012.46 1.65c1.4 2.51 3.75 1.75 4.71 1.31a3.05 3.05 0 011.07-2.19c-3.53-.44-7.27-1.86-7.27-8.11a6.64 6.64 0 011.6-4.38 5.84 5.84 0 01.13-4.37S9 6.24 12 8.32a16.92 16.92 0 014.06-.54 17 17 0 014.07.54c3.1-2.08 4.39-1.64 4.39-1.64a5.82 5.82 0 01.1 4.38 6.13 6.13 0 011.61 4.38c0 6.36-3.75 7.67-7.28 8.11A4.25 4.25 0 0120 26.62v4.49a.77.77 0 001.07.76A16.29 16.29 0 0032 16.32 16 16 0 0016.05 0z"/>
</svg>
