<svg xmlns="http://www.w3.org/2000/svg" viewBox="0 0 32 26">
    <path d="M27.4.13C30.53.13 32 2 32 5.28V6c-.18 2.94-2.21 7-6.62 12-4.23 5.14-8.09 7.9-11 7.9-1.83 0-3.31-1.65-4.59-4.78l-1.51-4.44L7 12.26c-.93-3.12-2-4.59-2.95-4.59A7.24 7.24 0 001.47 9L0 7.11l2.39-2L4.6 3.25C6.62 1.6 8.28.68 9.2.68h.36c2.21 0 3.5 1.65 4 4.78.37 1.84.55 3.31.73 4.41a15.31 15.31 0 00.56 2.39c1.1 3 1.84 4.42 2.76 4.42.73 0 1.65-.92 2.94-2.94s2-3.5 2-4.42v-.55c0-1.29-.73-2-2.21-2a13 13 0 00-2.34.34c1.66-4.59 4.78-7 9-7z"/>
</svg>
