<svg xmlns="http://www.w3.org/2000/svg" viewBox="0 0 32 18.5">
    <path d="M31.83 16.61c-.88-1.91-2.71-3.26-4.15-4.72-.74-.74-1.15-1.42-.57-2.4a35.72 35.72 0 012.28-3.06 22.25 22.25 0 002.13-3.23c.24-.47.71-1.32.39-1.84C31.43.58 28.78 1 28 1s-2.49-.3-3.18.16c-.47.31-.63 1.14-.84 1.63-.3.68-.63 1.35-1 2a17.53 17.53 0 01-2.19 3.31c-.27.31-.77.93-1.21.92-.71 0-.85-1-.89-1.49a30.29 30.29 0 010-3.69c0-1 .37-2.73-.66-3.34S15 .09 13.83.14a5.28 5.28 0 00-2.64.52c-.14.09-.55.39-.55.57s.23.2.52.3a1.69 1.69 0 011.05.81 7.8 7.8 0 01.41 3.81c0 .72 0 2.51-.8 2.87-1.57.72-3.37-3.71-3.9-4.76-.34-.66-.66-1.32-1-2a2.13 2.13 0 00-.69-1.09 2.58 2.58 0 00-1.5-.24A34.72 34.72 0 00.91 1C-.68 1.16.34 2.67.76 3.58q.94 2 2 4c2.32 4.11 5.24 8.73 9.95 10.27a10.11 10.11 0 003.37.43 5.22 5.22 0 002-.11c1-.44.56-1.9.82-2.75.43-1.43 1.38-1.6 2.43-.61 1.67 1.53 2.67 3.63 5.18 3.54 1.32-.05 2.65 0 4-.06.97-.05 1.85-.55 1.32-1.68z"/>
</svg>
